<svg xmlns="http://www.w3.org/2000/svg" width="30.097" height="29.026" viewBox="0 0 30.097 29.026">
  <g id="Grupo_1230" data-name="Grupo 1230" transform="translate(500.128 -313.008)">
    <path id="Trazado_222" data-name="Trazado 222" d="M-470.031,320.292a1.254,1.254,0,0,1-1.313.706c-1.292-.026-2.585-.007-3.878-.008a1,1,0,0,1-1.155-1.116,1.121,1.121,0,0,0-1.107-1.045c-.1-.009-.2-.006-.294-.006q-7.3,0-14.6,0a2.062,2.062,0,0,0-.715.117.985.985,0,0,0-.679.994q0,7.58,0,15.161a1.107,1.107,0,0,0,1.094,1.113c.1.009.2.006.294.006q7.316,0,14.632,0a2.21,2.21,0,0,0,.494-.049,1.041,1.041,0,0,0,.882-1.11q0-6.156,0-12.311a1.037,1.037,0,0,1,.323-.846.92.92,0,0,1,1.012-.176.95.95,0,0,1,.6.836,3.227,3.227,0,0,1,0,.323q0,5.391,0,10.783v.384h.334c.921,0,1.842.021,2.762-.008a1.249,1.249,0,0,1,1.314.705v.529a1.135,1.135,0,0,1-1.206.722c-1.008-.027-2.017,0-3.026-.011a.338.338,0,0,0-.385.248,2.859,2.859,0,0,1-1.68,1.664.372.372,0,0,0-.28.424q.014,1.4-.005,2.791a.9.9,0,0,1-.7.872.894.894,0,0,1-1.028-.369,1.562,1.562,0,0,1-.194-.718c-.022-.9-.009-1.8-.009-2.724h-1.794c0,.1-.013.2-.013.3,0,.793,0,1.587,0,2.38a1.877,1.877,0,0,1-.051.494.963.963,0,0,1-.959.676.962.962,0,0,1-.893-.76,2.425,2.425,0,0,1-.04-.466c-.005-.852,0-1.7-.007-2.556a.349.349,0,0,0-.022-.074H-484.1v.41c0,.793.007,1.587,0,2.38a.967.967,0,0,1-.685,1.014.878.878,0,0,1-1.037-.335,1.631,1.631,0,0,1-.213-.769c-.025-.89-.01-1.781-.01-2.7h-1.8v.3c0,.823.008,1.645,0,2.468a.979.979,0,0,1-1.334,1,.983.983,0,0,1-.611-1.009c0-.813,0-1.626,0-2.439v-.335h-1.808v1.408c0,.47.007.94,0,1.41a1,1,0,0,1-.972,1.04.967.967,0,0,1-.964-1.034q-.012-1.351,0-2.7a.338.338,0,0,0-.254-.383,2.89,2.89,0,0,1-1.717-1.7.3.3,0,0,0-.346-.218c-1.087.006-2.174.009-3.261,0a.946.946,0,0,1-1-.992.981.981,0,0,1,1.06-.944c1-.006,2,0,3,0h.334V320.99h-.316c-1.009,0-2.018.006-3.026,0a.974.974,0,0,1-.984-1.325.918.918,0,0,1,.913-.61c1.087,0,2.174-.006,3.261,0a.339.339,0,0,0,.379-.257,2.889,2.889,0,0,1,1.71-1.672.321.321,0,0,0,.247-.358c-.009-.95-.009-1.9.006-2.85a.938.938,0,0,1,.818-.9.964.964,0,0,1,1.018.583,1.608,1.608,0,0,1,.091.544c.009.793,0,1.587,0,2.38v.34h1.808v-.311c0-.793,0-1.587,0-2.38a1.835,1.835,0,0,1,.053-.493.962.962,0,0,1,.963-.67.962.962,0,0,1,.887.766,2.523,2.523,0,0,1,.04.466c.006.852.006,1.7.008,2.556a.276.276,0,0,0,.026.07h1.769v-.948c0-.578,0-1.156,0-1.733,0-.722.387-1.183.98-1.178s.966.462.968,1.191c0,.774,0,1.547,0,2.321v.343h1.8c0-.106,0-.209,0-.313,0-.832-.011-1.665,0-2.5a.973.973,0,0,1,1.337-.967.965.965,0,0,1,.6.983c0,.823,0,1.645,0,2.468v.332h1.811v-1.557c0-.421-.006-.842,0-1.263a.994.994,0,0,1,.972-1.039.967.967,0,0,1,.965,1.034q.012,1.351,0,2.7a.339.339,0,0,0,.254.383,2.891,2.891,0,0,1,1.717,1.7.3.3,0,0,0,.343.221c1.009-.007,2.018.018,3.026-.011a1.146,1.146,0,0,1,1.236.72Z" transform="translate(0 0)" fill="#25aae1"/>
    <path id="Trazado_223" data-name="Trazado 223" d="M-139.015,498.312a1.126,1.126,0,0,1-1.224.743c-.508-.02-1.018.008-1.526-.008a.964.964,0,0,1-1.01-1.216.839.839,0,0,1,.777-.693c.721-.033,1.446-.029,2.168,0,.433.016.651.345.815.706Z" transform="translate(-331.016 -170.556)" fill="#25aae1"/>
    <path id="Trazado_224" data-name="Trazado 224" d="M-138.972,447.361a1.124,1.124,0,0,1-1.219.754c-.518-.018-1.037.007-1.555-.007a.97.97,0,0,1-1-.781.948.948,0,0,1,.507-1.053.752.752,0,0,1,.306-.087c.7-.008,1.408-.019,2.111,0,.448.012.674.338.848.7Z" transform="translate(-331.058 -123.366)" fill="#25aae1"/>
    <path id="Trazado_225" data-name="Trazado 225" d="M-139.067,549.083a1.126,1.126,0,0,1-1.229.732c-.566-.029-1.135,0-1.7-.025a.869.869,0,0,1-.8-.6.917.917,0,0,1,.152-.963.986.986,0,0,1,.8-.363q.88-.012,1.761,0a1.049,1.049,0,0,1,1.014.747Z" transform="translate(-330.963 -217.566)" fill="#25aae1"/>
    <path id="Trazado_226" data-name="Trazado 226" d="M-498.126,498.97c-.352,0-.707.028-1.055-.007a.917.917,0,0,1-.823-.944.9.9,0,0,1,.829-.937,20.87,20.87,0,0,1,2.14,0,.918.918,0,0,1,.833.941.936.936,0,0,1-.839.939C-497.4,499-497.764,498.97-498.126,498.97Z" transform="translate(-0.114 -170.501)" fill="#25aae1"/>
    <path id="Trazado_227" data-name="Trazado 227" d="M-498.1,446.138c.343,0,.686-.021,1.027,0a.943.943,0,0,1,.868.915.905.905,0,0,1-.774.961,17.686,17.686,0,0,1-2.254,0,.893.893,0,0,1-.772-.983.926.926,0,0,1,.849-.893C-498.807,446.117-498.453,446.138-498.1,446.138Z" transform="translate(-0.111 -123.323)" fill="#25aae1"/>
    <path id="Trazado_228" data-name="Trazado 228" d="M-498.122,549.9c-.333,0-.667.018-1,0a.935.935,0,0,1-.889-.887.9.9,0,0,1,.819-1,16.74,16.74,0,0,1,2.168,0,.914.914,0,0,1,.814.958.965.965,0,0,1-.886.933,1.13,1.13,0,0,1-.117.011h-.911Z" transform="translate(-0.108 -217.673)" fill="#25aae1"/>
    <path id="Trazado_229" data-name="Trazado 229" d="M-386.758,451.756a.932.932,0,0,1-.835-.51c-.177-.379-.327-.772-.476-1.164a.31.31,0,0,0-.337-.243c-1.028.01-2.056.008-3.084,0a.266.266,0,0,0-.3.2c-.118.341-.256.675-.391,1.01a.978.978,0,0,1-1.292.63.983.983,0,0,1-.511-1.347q1.545-3.969,3.1-7.936a.994.994,0,0,1,.954-.735,1.029,1.029,0,0,1,.95.746q1.537,3.957,3.09,7.908A1,1,0,0,1-386.758,451.756Zm-4.184-3.877h2.008l-1.007-2.574Z" transform="translate(-98.246 -119.187)" fill="#25aae1"/>
    <path id="Trazado_230" data-name="Trazado 230" d="M-268.129,443.432v6.228c.127,0,.249,0,.371,0a.946.946,0,0,1,.951.887.934.934,0,0,1-.889,1.037c-.939.027-1.88.024-2.819,0a.964.964,0,0,1-.917-1,.971.971,0,0,1,.981-.93c.106,0,.213,0,.34,0v-6.229c-.12,0-.235,0-.349,0a.968.968,0,0,1-.973-.938.967.967,0,0,1,.927-.988q1.394-.031,2.79,0a.937.937,0,0,1,.91,1.019.944.944,0,0,1-.96.906C-267.882,443.434-268,443.432-268.129,443.432Z" transform="translate(-211.862 -119.026)" fill="#25aae1"/>
  </g>
</svg>
