<svg xmlns="http://www.w3.org/2000/svg" width="21.395" height="29.49" viewBox="0 0 21.395 29.49">
  <g id="Grupo_31" data-name="Grupo 31" transform="translate(-190.35 -460.295)">
    <path id="Trazado_3" data-name="Trazado 3" d="M196.856,463.843c0-.447,0-.84,0-1.232,0-.369.146-.514.519-.52.415-.007.83-.01,1.245,0a.283.283,0,0,0,.329-.227,2.187,2.187,0,0,1,4.2.006.283.283,0,0,0,.332.221c.415-.01.831-.008,1.246,0,.37.007.509.151.513.524,0,.392,0,.785,0,1.228h.362q2.754,0,5.509,0c.533,0,.635.1.635.624v24.692c0,.524-.1.627-.635.627H190.979c-.528,0-.629-.1-.629-.632V464.495c0-.556.094-.652.641-.652q2.737,0,5.475,0Zm-5.692.831v24.269h19.776V464.674h-5.7c0,.461,0,.907,0,1.351s-.116.572-.552.573q-3.639,0-7.279,0c-.436,0-.549-.123-.551-.575s0-.89,0-1.35Zm6.515,1.107h6.728v-2.875c-.485,0-.942,0-1.4,0-.411,0-.54-.128-.576-.541a1.389,1.389,0,0,0-2.767-.006c-.036.426-.165.544-.6.547-.456,0-.91,0-1.381,0Z" transform="translate(0 0)" fill="#51c854"/>
    <path id="Trazado_4" data-name="Trazado 4" d="M200.679,474.106h4.882c.119,0,.271-.024.35.036.123.1.278.255.273.384s-.168.271-.3.364c-.074.055-.21.031-.318.031h-9.8c-.043,0-.088,0-.132,0-.339-.014-.528-.163-.509-.42.022-.3.231-.4.5-.4.328,0,.656,0,.983,0Z" transform="translate(1.92 5.546)" fill="#51c854"/>
    <path id="Trazado_5" data-name="Trazado 5" d="M200.681,477.757h4.883c.108,0,.251-.029.318.027.129.105.287.261.294.4.007.116-.174.263-.3.355-.076.055-.21.032-.318.032q-4.9,0-9.8,0c-.108,0-.244.021-.318-.034-.126-.094-.3-.247-.293-.362.01-.142.171-.293.3-.4.069-.056.21-.024.32-.024Z" transform="translate(1.926 7.011)" fill="#51c854"/>
    <path id="Trazado_6" data-name="Trazado 6" d="M200.63,467.631h-4.85c-.119,0-.268.022-.35-.038-.126-.091-.285-.245-.285-.371s.16-.279.283-.377c.07-.056.209-.032.318-.032q4.914,0,9.83,0c.108,0,.247-.022.318.034.123.1.285.247.285.374s-.158.282-.285.373c-.083.06-.231.038-.35.038Z" transform="translate(1.926 2.615)" fill="#51c854"/>
    <path id="Trazado_7" data-name="Trazado 7" d="M200.665,470.459h4.916c.108,0,.247-.025.318.031.125.1.285.247.285.376s-.16.276-.285.374c-.071.056-.209.038-.317.038q-4.916,0-9.831,0c-.1,0-.224.022-.286-.028a.837.837,0,0,1-.322-.387c-.049-.221.133-.353.346-.4a1.473,1.473,0,0,1,.294-.01Z" transform="translate(1.922 4.081)" fill="#51c854"/>
    <path id="Trazado_8" data-name="Trazado 8" d="M193.856,467.7c.449-.488.866-.948,1.29-1.4.226-.242.479-.283.648-.094.2.223.128.433-.059.635-.5.544-1,1.1-1.5,1.641-.266.287-.484.289-.744.008s-.53-.579-.793-.872a.4.4,0,1,1,.586-.545C193.468,467.265,193.649,467.47,193.856,467.7Z" transform="translate(0.884 2.325)" fill="#51c854"/>
    <path id="Trazado_9" data-name="Trazado 9" d="M193.862,478.908l1.19-1.3a2.587,2.587,0,0,1,.179-.191c.179-.163.408-.2.542,0a.56.56,0,0,1,.041.516c-.541.642-1.113,1.257-1.69,1.867a.358.358,0,0,1-.554-.02c-.308-.324-.613-.653-.907-.99a.362.362,0,0,1,.028-.552.37.37,0,0,1,.555.021C193.447,478.458,193.637,478.669,193.862,478.908Z" transform="translate(0.883 6.823)" fill="#51c854"/>
    <path id="Trazado_10" data-name="Trazado 10" d="M193.858,471.433c.457-.5.9-.981,1.341-1.459a.378.378,0,0,1,.579-.046.39.39,0,0,1,.013.583.494.494,0,0,1-.043.049c-.5.548-1,1.1-1.5,1.641-.293.314-.493.307-.788-.014-.251-.273-.5-.548-.751-.821a.387.387,0,0,1-.015-.6.383.383,0,0,1,.6.057C193.474,471.015,193.657,471.216,193.858,471.433Z" transform="translate(0.884 3.824)" fill="#51c854"/>
    <path id="Trazado_11" data-name="Trazado 11" d="M193.856,475.17l1.24-1.348c.278-.3.488-.35.692-.156.184.174.15.421-.092.687-.486.531-.97,1.065-1.459,1.594-.285.3-.479.3-.764-.006q-.381-.406-.751-.821c-.21-.236-.223-.472-.029-.629.237-.193.442-.108.625.1C193.486,474.775,193.658,474.956,193.856,475.17Z" transform="translate(0.886 5.324)" fill="#51c854"/>
  </g>
</svg>
