<svg xmlns="http://www.w3.org/2000/svg" width="30.138" height="26" viewBox="0 0 30.138 26">
  <g id="Grupo_41" data-name="Grupo 41" transform="translate(-132.462 -1488.537)">
    <g id="Grupo_34" data-name="Grupo 34" transform="translate(154.341 1492.335)">
      <path id="Trazado_21" data-name="Trazado 21" d="M236.7,483.695c.879-.884,1.694-1.711,2.519-2.527a.685.685,0,0,1,1.117.053.641.641,0,0,1-.11.862q-1.492,1.5-3,3a.68.68,0,0,1-1.021.012q-.8-.771-1.569-1.569a.671.671,0,0,1-.04-.989.679.679,0,0,1,.989.014C235.956,482.907,236.3,483.287,236.7,483.695Z" transform="translate(-234.398 -480.907)" fill="#308ad9"/>
    </g>
    <g id="Grupo_36" data-name="Grupo 36" transform="translate(132.462 1488.537)">
      <path id="Trazado_26" data-name="Trazado 26" d="M233.089,494.616c.462,0,.937-.015,1.41,0a7.292,7.292,0,0,1,6.9,6.1,5.651,5.651,0,0,1,.034,1.813,2.39,2.39,0,0,1-2.394,1.881c-1.443.011-2.889,0-4.332,0q-6.7,0-13.4,0a2.422,2.422,0,0,1-2.559-2.6,7.388,7.388,0,0,1,.322-2.023,7.184,7.184,0,0,1,6.217-5.139,14.99,14.99,0,0,1,1.985-.012c-.128-.14-.192-.206-.25-.276-.7-.833-1.413-1.65-2.077-2.509a3.4,3.4,0,0,1-.673-1.921.443.443,0,0,0-.212-.3,1.587,1.587,0,0,1-.528-2.457.735.735,0,0,0,.131-.413,13.053,13.053,0,0,1,.214-3.377,6.429,6.429,0,0,1,12.578.331,28.258,28.258,0,0,1,.139,3.12.564.564,0,0,0,.1.314,1.588,1.588,0,0,1-.516,2.483.46.46,0,0,0-.223.316,3.668,3.668,0,0,1-.845,2.2C234.481,492.978,233.785,493.77,233.089,494.616Zm-5.762.969a19.062,19.062,0,0,0-2.277.133,6.322,6.322,0,0,0-5.3,5.945,1.517,1.517,0,0,0,1.6,1.721c1.544-.038,3.088-.009,4.633-.009q6.466,0,12.932,0a1.412,1.412,0,0,0,1.575-1.616,6.156,6.156,0,0,0-2.586-4.915,6.918,6.918,0,0,0-4.949-1.195c-.146,1.891-1.225,3.037-2.835,3.038A2.853,2.853,0,0,1,227.327,495.585Zm2.786-1.083a3.167,3.167,0,0,0,2.609-1.083c.282-.33.6-.629.873-.961a4.52,4.52,0,0,0,1.389-3.038c-.012-.517.078-.539.627-.676a.556.556,0,0,0,.453-.548.447.447,0,0,0-.346-.505,1.069,1.069,0,0,1-.963-1.085.876.876,0,0,0-.981-.79c-.421.015-.841.056-1.26.087a6.25,6.25,0,0,1-3.835-.818,1.622,1.622,0,0,0-2.29.554q-.481.739-.937,1.494a1,1,0,0,1-.764.523.487.487,0,0,0-.488.522.542.542,0,0,0,.488.574c.468.089.578.2.584.682a3.509,3.509,0,0,0,.816,2.3c.487.577.983,1.145,1.474,1.717A3.117,3.117,0,0,0,230.114,494.5Zm-5.419-8.113c.3-.47.546-.871.8-1.268a2.7,2.7,0,0,1,3.749-.9,5.639,5.639,0,0,0,1.057.47,6.076,6.076,0,0,0,2.64.153,2.389,2.389,0,0,1,2.536.809c.006.008.038,0,.113-.008a15.571,15.571,0,0,0-.14-1.816,5.4,5.4,0,0,0-10.1-1.448A7.411,7.411,0,0,0,224.7,486.388Zm3.67,8.9a1.971,1.971,0,0,0,.836,2.1,1.685,1.685,0,0,0,1.939-.056,1.934,1.934,0,0,0,.725-2.037A7.189,7.189,0,0,1,228.365,495.29Z" transform="translate(-218.749 -478.418)" fill="#308ad9"/>
      <path id="Trazado_27" data-name="Trazado 27" d="M237.945,489.826a5.558,5.558,0,1,1,5.531-5.544A5.555,5.555,0,0,1,237.945,489.826Zm4.956-5.379a4.987,4.987,0,1,0-5.251,4.807A5,5,0,0,0,242.9,484.447Z" transform="translate(-213.588 -478.264)" fill="#308ad9" stroke="#308ad9" stroke-width="0.5"/>
    </g>
  </g>
</svg>
