<svg id="Grupo_35" data-name="Grupo 35" xmlns="http://www.w3.org/2000/svg" width="30.138" height="26" viewBox="0 0 30.138 26">
  <path id="Trazado_22" data-name="Trazado 22" d="M233.464,514.728c.462,0,.937-.014,1.41,0a7.289,7.289,0,0,1,6.9,6.1,5.65,5.65,0,0,1,.034,1.813,2.39,2.39,0,0,1-2.394,1.882c-1.444.011-2.889,0-4.332,0q-6.7,0-13.4,0a2.424,2.424,0,0,1-2.56-2.606,7.4,7.4,0,0,1,.322-2.023,7.183,7.183,0,0,1,6.216-5.138,14.75,14.75,0,0,1,1.987-.012c-.13-.14-.194-.206-.252-.276-.7-.833-1.413-1.651-2.077-2.509a3.4,3.4,0,0,1-.671-1.921.444.444,0,0,0-.212-.3,1.588,1.588,0,0,1-.529-2.458.727.727,0,0,0,.131-.412,13.064,13.064,0,0,1,.214-3.378,6.429,6.429,0,0,1,12.578.333,28.627,28.627,0,0,1,.14,3.119.575.575,0,0,0,.1.316,1.588,1.588,0,0,1-.516,2.483.46.46,0,0,0-.223.314,3.672,3.672,0,0,1-.845,2.2C234.856,513.092,234.162,513.884,233.464,514.728Zm-5.762.971a19.07,19.07,0,0,0-2.277.131,6.325,6.325,0,0,0-5.3,5.946,1.517,1.517,0,0,0,1.6,1.721c1.544-.038,3.088-.011,4.633-.011q6.466,0,12.932,0a1.411,1.411,0,0,0,1.575-1.616,6.152,6.152,0,0,0-2.586-4.915,6.918,6.918,0,0,0-4.948-1.195c-.146,1.891-1.225,3.035-2.834,3.038A2.853,2.853,0,0,1,227.7,515.7Zm2.788-1.085a3.165,3.165,0,0,0,2.608-1.082c.282-.33.6-.63.873-.961a4.529,4.529,0,0,0,1.39-3.038c-.014-.519.078-.539.626-.677a.556.556,0,0,0,.455-.546.448.448,0,0,0-.348-.505,1.069,1.069,0,0,1-.963-1.085.876.876,0,0,0-.981-.79c-.421.014-.841.055-1.26.085a6.249,6.249,0,0,1-3.835-.816,1.621,1.621,0,0,0-2.29.554q-.481.739-.935,1.494a1,1,0,0,1-.766.522.489.489,0,0,0-.488.523.543.543,0,0,0,.49.574c.468.088.577.2.583.68a3.51,3.51,0,0,0,.816,2.3c.487.577.983,1.144,1.476,1.717A3.112,3.112,0,0,0,230.49,514.614Zm-5.42-8.112c.3-.47.548-.873.8-1.268a2.7,2.7,0,0,1,3.751-.9,5.5,5.5,0,0,0,1.057.468,6.025,6.025,0,0,0,2.638.153,2.4,2.4,0,0,1,2.538.81c.006.008.037,0,.111-.008a15.251,15.251,0,0,0-.14-1.816,5.4,5.4,0,0,0-10.1-1.448A7.411,7.411,0,0,0,225.07,506.5Zm3.67,8.9a1.973,1.973,0,0,0,.838,2.1,1.682,1.682,0,0,0,1.938-.056,1.933,1.933,0,0,0,.725-2.037A7.172,7.172,0,0,1,228.74,515.4Z" transform="translate(-219.124 -498.531)" fill="#ef58c9"/>
  <path id="Trazado_23" data-name="Trazado 23" d="M236.927,500.754a1.73,1.73,0,0,1,.912,3.212.667.667,0,0,0-.409.516.5.5,0,0,1-.566.4.535.535,0,0,1-.432-.584,1.367,1.367,0,0,1,.79-1.151.711.711,0,0,0,.433-.691.713.713,0,0,0-1.392-.18c-.027.1-.035.2-.058.294a.48.48,0,0,1-.549.412.491.491,0,0,1-.455-.523A1.728,1.728,0,0,1,236.927,500.754Z" transform="translate(-212.669 -497.363)" fill="#ef58c9"/>
  <path id="Trazado_24" data-name="Trazado 24" d="M236.577,503.7a.542.542,0,0,1,.5.528.517.517,0,1,1-.5-.528Z" transform="translate(-212.227 -495.815)" fill="#ef58c9"/>
  <path id="Trazado_25" data-name="Trazado 25" d="M238.32,509.94a5.558,5.558,0,1,1,5.531-5.544A5.556,5.556,0,0,1,238.32,509.94Zm4.956-5.379a4.987,4.987,0,1,0-5.251,4.807A5,5,0,0,0,243.276,504.561Z" transform="translate(-213.963 -498.377)" fill="#ef58c9" stroke="#ef58c9" stroke-width="0.5"/>
</svg>
