<svg id="Grupo_38" data-name="Grupo 38" xmlns="http://www.w3.org/2000/svg" width="26.012" height="26" viewBox="0 0 26.012 26">
  <path id="Trazado_29" data-name="Trazado 29" d="M120.367,530.812a2.685,2.685,0,0,1-1.656-.615,1.732,1.732,0,0,1-.5-.7q-1.566-4.593-3.088-9.2a.883.883,0,0,0-.627-.632q-4.417-1.462-8.824-2.952a2.3,2.3,0,0,1-1.7-2.307,3.408,3.408,0,0,1,2.381-3.3q9.861-3.08,19.726-6.138a2.885,2.885,0,0,1,3.9,2.825,4.109,4.109,0,0,1-.209,1.023q-3,9.695-6.016,19.384A3.487,3.487,0,0,1,120.367,530.812Zm8.321-23.091a1.5,1.5,0,0,0-1.147-1.531,2.794,2.794,0,0,0-1.223.093c-4.234,1.3-8.461,2.62-12.689,3.933l-6.726,2.093a2.127,2.127,0,0,0-1.6,1.913,1.078,1.078,0,0,0,.651,1.2q4.484,1.506,8.965,3.021a.578.578,0,0,0,.693-.182c1.372-1.391,2.756-2.768,4.139-4.147a1.5,1.5,0,0,1,.3-.264.645.645,0,0,1,.887.888,1.7,1.7,0,0,1-.292.332c-1.379,1.383-2.755,2.768-4.147,4.139a.549.549,0,0,0-.152.665q1.509,4.443,2.984,8.9a.935.935,0,0,0,.8.679,2.059,2.059,0,0,0,2.347-1.569q3.03-9.726,6.052-19.453C128.605,508.2,128.638,507.956,128.688,507.721Z" transform="translate(-103.978 -504.812)" fill="#4caf7a"/>
</svg>
