<svg id="Grupo_32" data-name="Grupo 32" xmlns="http://www.w3.org/2000/svg" width="24.782" height="26" viewBox="0 0 24.782 26">
  <path id="Trazado_12" data-name="Trazado 12" d="M166.119,482.939l1.656,3.381c.217-.361.421-.683.61-1.015a.884.884,0,0,1,1.649.078c.56,1.168,1.133,2.33,1.7,3.5a2.3,2.3,0,0,1-1.1,3.228c-1.362.671-2.728,1.332-4.094,2a1.538,1.538,0,0,1-2.215-.773c-.909-1.852-1.809-3.71-2.712-5.566-.156-.32-.332-.634-.466-.965a1.13,1.13,0,0,0-.663-.68c-.291-.114-.559-.279-.841-.417a.868.868,0,0,0-1.193.4q-1.75,3.589-3.5,7.18a1.573,1.573,0,0,1-1.528,1.014,1.7,1.7,0,0,1-.665-.179q-2.091-1-4.168-2.029a2.292,2.292,0,0,1-1.1-3.17c.578-1.2,1.17-2.392,1.749-3.591a.862.862,0,0,1,.759-.555.885.885,0,0,1,.835.486c.2.346.413.687.638,1.06l1.685-3.451c-.1-.045-.191-.084-.279-.117-.618-.235-1.237-.466-1.852-.7a1.339,1.339,0,0,1-.751-1.929c.355-.721.707-1.443,1.087-2.152a1.006,1.006,0,0,0,.015-.991c-.334-.7-.641-1.415-.958-2.124a1.354,1.354,0,0,1,.875-1.977c.772-.253,1.54-.512,2.314-.757a.842.842,0,0,0,.575-.548c.285-.77.579-1.537.872-2.3a1.334,1.334,0,0,1,1.974-.776c.736.366,1.472.731,2.2,1.11a.869.869,0,0,0,.819.014q1.121-.513,2.248-1.01a1.341,1.341,0,0,1,1.925.853c.262.777.52,1.557.767,2.34a.859.859,0,0,0,.565.591c.762.278,1.519.572,2.278.86a1.347,1.347,0,0,1,.783,2c-.366.736-.733,1.472-1.11,2.2a.848.848,0,0,0-.014.793q.513,1.121,1.01,2.249a1.344,1.344,0,0,1-.859,1.942C167.146,482.6,166.646,482.764,166.119,482.939ZM156.4,468.961a.724.724,0,0,0-.705.487c-.3.784-.609,1.564-.895,2.353a1.466,1.466,0,0,1-.983.946c-.773.249-1.543.505-2.314.761a.7.7,0,0,0-.481,1.081c.326.735.646,1.473.99,2.2a1.494,1.494,0,0,1-.029,1.412c-.366.706-.719,1.419-1.076,2.13a.708.708,0,0,0,.441,1.138c.758.289,1.518.574,2.277.864a1.431,1.431,0,0,1,.909.951c.243.775.505,1.544.762,2.315a.716.716,0,0,0,1.118.493c.726-.325,1.455-.643,2.174-.981a1.492,1.492,0,0,1,1.411.032c.705.366,1.418.719,2.128,1.076a.711.711,0,0,0,1.138-.444c.291-.759.581-1.517.862-2.279a1.408,1.408,0,0,1,.95-.906c.766-.242,1.527-.5,2.288-.753.629-.211.775-.552.506-1.152-.33-.734-.656-1.469-.992-2.2a1.415,1.415,0,0,1,.03-1.312c.373-.722.734-1.451,1.1-2.178a.717.717,0,0,0-.441-1.141c-.735-.279-1.466-.564-2.206-.829a1.536,1.536,0,0,1-1.01-1.059c-.232-.75-.488-1.493-.736-2.238-.2-.6-.543-.75-1.113-.495-.741.332-1.484.663-2.221,1a1.427,1.427,0,0,1-1.337-.04c-.72-.376-1.45-.735-2.178-1.094A3.319,3.319,0,0,0,156.4,468.961Zm10.9,24.017c.09-.032.148-.047.2-.072.97-.474,1.944-.942,2.91-1.425a1.628,1.628,0,0,0,.766-2.247q-.858-1.788-1.738-3.563c-.046-.092-.148-.21-.231-.216s-.194.1-.248.191c-.312.5-.612,1.008-.915,1.515a.847.847,0,0,1-.844.461c-.6-.059-1.2-.149-1.809-.214-.113-.013-.278,0-.334.065s-.017.234.031.333q.928,1.931,1.874,3.854A2.1,2.1,0,0,1,167.3,492.978Zm-15.337.011a1.976,1.976,0,0,1,.317-1.307q.953-1.95,1.9-3.9a.373.373,0,0,0,.02-.31.4.4,0,0,0-.309-.071c-.56.057-1.121.116-1.675.2a.937.937,0,0,1-1.047-.512q-.417-.718-.858-1.423c-.06-.094-.179-.217-.263-.211s-.193.138-.242.239q-.861,1.74-1.7,3.49a1.649,1.649,0,0,0,.79,2.323c.937.46,1.877.915,2.816,1.371C151.77,492.914,151.843,492.94,151.959,492.989Zm9.989-6.042c.01.022.025.064.045.1q1.467,3.009,2.937,6.018a.894.894,0,0,0,1.242.482.9.9,0,0,0,.358-1.265c-.247-.514-.5-1.028-.75-1.541-.439-.9-.865-1.8-1.321-2.694a.872.872,0,0,1,.883-1.315c.23.031.46.055.691.083l1.317.156c-.059-.129-.093-.209-.131-.287q-.777-1.588-1.554-3.176c-.186-.38-.425-.421-.728-.107a1.1,1.1,0,0,0-.211.366q-.443,1.149-.873,2.3a1.288,1.288,0,0,1-.981.9A4.432,4.432,0,0,1,161.947,486.947Zm-10.052.015c.179-.014.3-.02.425-.033.56-.064,1.117-.153,1.679-.189a.822.822,0,0,1,.89,1,1.417,1.417,0,0,1-.141.373q-1.013,2.086-2.032,4.168a.9.9,0,1,0,1.6.792q1.35-2.754,2.693-5.514c.2-.405.4-.811.63-1.293l-.994.444a1.348,1.348,0,0,1-1.961-.865c-.251-.762-.5-1.526-.754-2.289-.04-.123-.1-.24-.171-.411Z" transform="translate(-147.23 -468.307)" fill="#c752e3"/>
  <path id="Trazado_13" data-name="Trazado 13" d="M158.734,483.668a6.395,6.395,0,1,1,6.364-6.377A6.391,6.391,0,0,1,158.734,483.668Zm5.7-6.188a5.737,5.737,0,1,0-6.041,5.529A5.755,5.755,0,0,0,164.436,477.48Z" transform="translate(-146.476 -467.926)" fill="#c752e3"/>
  <path id="Trazado_14" data-name="Trazado 14" d="M156.021,478.519c.164-.551-.2-.9-.468-1.3a1.82,1.82,0,0,1-.327-.736.794.794,0,0,1,.62-.914,2.446,2.446,0,0,0,1.681-1.216.9.9,0,0,1,1.49,0,2.546,2.546,0,0,0,1.679,1.219.879.879,0,0,1,.455,1.424,2.507,2.507,0,0,0-.633,1.954.885.885,0,0,1-1.207.887,2.55,2.55,0,0,0-2.073,0,.9.9,0,0,1-1.216-.912C156.021,478.787,156.021,478.653,156.021,478.519Zm.645-.2c0,.237-.007.408,0,.576a.3.3,0,0,0,.435.3c1.419-.471.948-.443,2.331,0,.277.087.435-.023.441-.316.006-.241-.006-.483-.017-.725a1.216,1.216,0,0,1,.273-.873c.165-.2.318-.411.466-.624.162-.232.106-.4-.163-.5-.243-.086-.49-.165-.739-.233a1.186,1.186,0,0,1-.717-.525c-.13-.2-.274-.4-.418-.591-.2-.271-.373-.271-.571-.007a3.22,3.22,0,0,0-.246.353,1.61,1.61,0,0,1-1.193.86,1.4,1.4,0,0,0-.178.057c-.628.2-.659.282-.251.811C156.465,477.332,156.822,477.766,156.666,478.323Z" transform="translate(-146.045 -467.469)" fill="#c752e3"/>
</svg>
