<svg xmlns="http://www.w3.org/2000/svg" width="28.433" height="19.384" viewBox="0 0 28.433 19.384">
  <g id="Grupo_42" data-name="Grupo 42" transform="translate(-30.167 -516.995)">
    <path id="Trazado_37" data-name="Trazado 37" d="M33.207,530.232a3.5,3.5,0,0,1-2.358-1.39,3.242,3.242,0,0,1-.674-1.975c0-2.2-.025-4.407.014-6.609A3.4,3.4,0,0,1,33.55,517q6.1-.015,12.2,0a7.843,7.843,0,0,1,1.27.053,3.343,3.343,0,0,1,2.7,2.287.344.344,0,0,0,.4.266c1.755,0,3.51-.018,5.266.017a3.376,3.376,0,0,1,3.189,3.182q.05,3.386,0,6.772a3.387,3.387,0,0,1-2.7,3.2c-.106.022-.21.052-.344.085,0,.786,0,1.569,0,2.352a1.061,1.061,0,0,1-.547,1.038,1.015,1.015,0,0,1-1.3-.264c-.912-.968-1.824-1.937-2.726-2.915a.628.628,0,0,0-.509-.221c-2.758,0-5.516.02-8.274-.011a3.328,3.328,0,0,1-3.116-2.281c-.092-.263-.228-.294-.47-.316a1.106,1.106,0,0,0-1.011.435c-.818.92-1.67,1.811-2.516,2.706a1.026,1.026,0,0,1-1.759-.276,1.773,1.773,0,0,1-.076-.578c-.01-.73-.007-1.461-.008-2.191A.8.8,0,0,0,33.207,530.232Zm6.854-12.446c-2.094,0-4.186,0-6.279,0a2.684,2.684,0,0,0-2.817,2.812c0,2.073-.006,4.144,0,6.217a2.65,2.65,0,0,0,2.527,2.622c.407.018.541.155.543.565,0,.829-.007,1.659.007,2.487a1.689,1.689,0,0,0,.145.46,1.621,1.621,0,0,0,.393-.228q1.406-1.485,2.791-2.987a.85.85,0,0,1,.684-.3q4.122.013,8.242,0a3.251,3.251,0,0,0,.618-.036,2.643,2.643,0,0,0,2.2-2.752c.01-2.018,0-4.036,0-6.053a3.207,3.207,0,0,0-.066-.715,2.666,2.666,0,0,0-2.716-2.1C44.247,517.782,42.155,517.786,40.062,517.786Zm11.9,7.463h.358c.937,0,1.874,0,2.812,0,.364,0,.516.143.508.483a4.755,4.755,0,0,1-.071.745,4.106,4.106,0,0,1-4.572,3.235,4.66,4.66,0,0,1-1.849-.739,3.594,3.594,0,0,1-3.1,1.277H39.8a2.654,2.654,0,0,0,2.5,1.8q4.2.006,8.405,0a.847.847,0,0,1,.682.3q1.4,1.515,2.817,3.01a1.389,1.389,0,0,0,.372.2,1.311,1.311,0,0,0,.144-.394c.013-.861,0-1.723.008-2.585,0-.358.14-.5.478-.522a2.661,2.661,0,0,0,2.592-2.732q0-3.092,0-6.184a2.663,2.663,0,0,0-2.745-2.741c-1.592,0-3.183,0-4.775,0-.106,0-.211.01-.327.015v1.4c.469-.084.922-.187,1.382-.241.491-.059.624.084.624.585C51.959,523.168,51.958,524.181,51.958,525.249Zm-.82-2.9-.966.316a.319.319,0,0,0-.239.362c.011.818.008,1.635,0,2.453a5.816,5.816,0,0,1-.35,2.773,3.2,3.2,0,0,0,3.489.32,3.076,3.076,0,0,0,1.671-2.524h-.352c-.85,0-1.7,0-2.551,0-.629,0-.7-.077-.7-.722v-2.979Z" transform="translate(0 -0.001)" fill="#fd45c7"/>
    <path id="Trazado_38" data-name="Trazado 38" d="M43.467,521.788a1.53,1.53,0,1,1,2.72-.15,1.5,1.5,0,0,1-1.88.813.387.387,0,0,0-.5.108c-.359.382-.733.748-1.109,1.112a.321.321,0,0,0-.094.42,1.482,1.482,0,0,1-.474,1.785,1.528,1.528,0,0,1-1.8.045,1.5,1.5,0,0,1-.559-1.761.308.308,0,0,0-.083-.392c-.432-.415-.846-.85-1.281-1.264a.38.38,0,0,0-.32-.077,1.6,1.6,0,0,1-1.178,0,.374.374,0,0,0-.323.07c-.42.4-.817.818-1.235,1.218a.335.335,0,0,0-.081.427,1.517,1.517,0,0,1-.979,1.986,1.538,1.538,0,0,1-1.923-1.067,1.508,1.508,0,0,1,1.161-1.887,5.237,5.237,0,0,1,1.166.077c.392-.4.867-.86,1.32-1.345a.432.432,0,0,0,.046-.361,1.54,1.54,0,0,1,.948-1.985,1.492,1.492,0,0,1,1.943,1.048,2.367,2.367,0,0,1-.05.957c-.029.157-.042.249.078.366.431.417.845.852,1.28,1.264a.372.372,0,0,0,.323.063,1.626,1.626,0,0,1,1.179-.02.331.331,0,0,0,.28-.047C42.526,522.734,42.993,522.261,43.467,521.788Zm-6.688-.769a.713.713,0,0,0,.724.721.725.725,0,1,0-.01-1.45A.709.709,0,0,0,36.779,521.019Zm8.727.01a.706.706,0,0,0-.7-.74.726.726,0,1,0-.029,1.452A.713.713,0,0,0,45.506,521.029Zm-10.938,3.635a.729.729,0,0,0-.717-.734.745.745,0,0,0-.73.727.716.716,0,0,0,.723.722A.7.7,0,0,0,34.568,524.664Zm6.632.715a.711.711,0,0,0,.731-.712.77.77,0,0,0-.726-.74.751.751,0,0,0-.727.731A.708.708,0,0,0,41.2,525.379Z" transform="translate(0.856 0.991)" fill="#fd45c7"/>
  </g>
</svg>
