<svg id="Grupo_39" data-name="Grupo 39" xmlns="http://www.w3.org/2000/svg" width="25.841" height="25.754" viewBox="0 0 25.841 25.754">
  <path id="Trazado_30" data-name="Trazado 30" d="M91.518,469.345a6.387,6.387,0,0,1,.277-.881,3.164,3.164,0,0,1,3.027-1.925c1.833-.019,3.666,0,5.5-.006a.721.721,0,0,1,.722.408.584.584,0,0,1-.1.658.694.694,0,0,1-.582.238q-2.738-.008-5.475,0a1.874,1.874,0,0,0-1.858,1.095,2.548,2.548,0,0,0-.2,1.021q-.019,8.2-.006,16.4a2.559,2.559,0,0,0,.048.6,1.938,1.938,0,0,0,2.043,1.516q5.046,0,10.09,0H112.6a2.121,2.121,0,0,0,1.369-.415,2,2,0,0,0,.756-1.679v-5.349c0-.543.23-.846.641-.849s.652.307.653.841c0,1.791,0,3.582,0,5.374a3.225,3.225,0,0,1-2.68,3.32c-.171.033-.347.05-.52.075H94.7a1.4,1.4,0,0,0-.193-.043,3.141,3.141,0,0,1-2.709-1.907,6.523,6.523,0,0,1-.277-.877Z" transform="translate(-91.518 -464.03)" fill="#f24949"/>
  <path id="Trazado_32" data-name="Trazado 32" d="M117.1,467.848a2.947,2.947,0,0,1-.944,2.094q-3.411,3.4-6.815,6.813c-1.474,1.474-2.945,2.952-4.429,4.418a1.5,1.5,0,0,1-.614.36c-1.691.484-3.389.947-5.084,1.418-.056.016-.112.032-.169.045a.649.649,0,0,1-.8-.814q.736-2.7,1.5-5.4a.963.963,0,0,1,.25-.4q5.675-5.688,11.361-11.364a2.879,2.879,0,0,1,4.191.012,13.26,13.26,0,0,1,.97,1.023A2.733,2.733,0,0,1,117.1,467.848Zm-15.7,9.016,2.962,2.962,9.315-9.315-2.963-2.962Zm13.231-7.313a10.362,10.362,0,0,0,.811-.766,1.53,1.53,0,0,0,0-1.99,8.657,8.657,0,0,0-1.017-1.012,1.4,1.4,0,0,0-1.669-.169,8.632,8.632,0,0,0-1.135.929ZM99.8,481.436l3.259-.9-2.358-2.358Z" transform="translate(-91.258 -464.123)" fill="#f24949"/>
</svg>
