<svg id="Grupo_37" data-name="Grupo 37" xmlns="http://www.w3.org/2000/svg" width="18.838" height="26" viewBox="0 0 18.838 26">
  <path id="Trazado_28" data-name="Trazado 28" d="M144.6,528.588a6.451,6.451,0,0,1,.762.248,3.082,3.082,0,0,1,1.916,2.965c.018,1.075-.012,2.15.009,3.225a1.42,1.42,0,0,1-1.353,1.613V541.6c.423,0,.836,0,1.249,0a.955.955,0,0,1,.788.331,2.4,2.4,0,0,1-.007,2.01.928.928,0,0,1-.717.322c-.108.005-.218,0-.372,0,.027.354.048.7.078,1.036q.141,1.655.289,3.309.141,1.6.283,3.209c.055.615.119,1.227.158,1.844a.862.862,0,0,1-.873.917,2.922,2.922,0,0,1-.778-.053.86.86,0,0,1-.6-.719q-.462-2.138-.928-4.277l-.17-.776H133.184c-.138.625-.28,1.256-.416,1.886-.228,1.047-.45,2.1-.677,3.142a.913.913,0,0,1-1,.8c-1.031,0-1.288-.25-1.213-1.273.1-1.316.225-2.628.338-3.943q.162-1.894.322-3.79c.035-.427.074-.854.113-1.293-.214-.018-.4-.018-.579-.05a.823.823,0,0,1-.71-.8c-.016-.338-.016-.678,0-1.015a.8.8,0,0,1,.723-.786c.361-.039.726-.023,1.089-.032.133,0,.266,0,.411,0v-4.973a1.317,1.317,0,0,1-1.273-.955,1.9,1.9,0,0,1-.073-.549c-.005-1.091.005-2.184,0-3.275a3.129,3.129,0,0,1,2.623-3.222c.021,0,.039-.028.06-.042Zm-5.843,7.175q3.517,0,7.033,0c.476,0,.634-.159.636-.639,0-1.093,0-2.184,0-3.275a2.621,2.621,0,0,0-.081-.677,2.231,2.231,0,0,0-2.3-1.725q-5.281-.005-10.563,0a2.994,2.994,0,0,0-.455.026,2.289,2.289,0,0,0-1.932,2.368c0,1.084,0,2.168,0,3.25,0,.526.149.673.68.673Zm-4.506,5.822h9.008v-4.952h-9.008Zm-.094,2.7-.391,1.815h9.989l-.393-1.815Zm-3.935-1.808v.926h17.075v-.926Zm1.008,11.248,2.051-9.431h-1.769l-.822,9.431Zm15.6-.005-.82-9.429h-1.771l2.051,9.429Zm-2.683-5.836-.2-.905c-3.427,0-6.819-.009-10.21-.007a.247.247,0,0,0-.184.143c-.069.248-.112.5-.166.769Zm-10.784-6.291v-4.959h-.891v4.959Zm11.689,0v-4.957h-.9v4.957Z" transform="translate(-129.346 -528.588)" fill="#c2882b"/>
</svg>
