<svg id="Grupo_40" data-name="Grupo 40" xmlns="http://www.w3.org/2000/svg" width="22.558" height="26" viewBox="0 0 22.558 26">
  <path id="Trazado_33" data-name="Trazado 33" d="M59.486,479.513c.141.144.315.288.241.513a.6.6,0,0,1-.255.318A1.761,1.761,0,0,0,58.465,482c0,.168,0,.336,0,.527a1.046,1.046,0,0,0,.149-.045,3.457,3.457,0,0,1,4.462,1.179,5.434,5.434,0,0,1,1,3.662,5.111,5.111,0,0,1-1.5,3.322,1.345,1.345,0,0,0-.1.129h.309c1.727,0,3.453,0,5.178,0a1.288,1.288,0,0,1,1.316,1.413,1.349,1.349,0,0,1-1.284,1.2v2.546c.862.2,1.285.645,1.285,1.335,0,.711-.415,1.122-1.36,1.337.191.217.393.419.566.643a3.9,3.9,0,0,1-2.507,6.2,4.231,4.231,0,0,1-.606.045c-5.744,0-11.489,0-17.235.011a1.352,1.352,0,0,1-1.394-1.193,1.293,1.293,0,0,1,1.214-1.413.652.652,0,0,0,.065-.026v-2.549a1.294,1.294,0,0,1-1.086-.66,1.779,1.779,0,0,1-.179-.821c.036-.648.545-1.065,1.387-1.178-.121-.115-.23-.2-.322-.306a3.905,3.905,0,0,1,2.352-6.567,9.092,9.092,0,0,1,1.243-.023c.692,0,1.385,0,2.15,0a5.323,5.323,0,0,1-1.636-4.119,5.076,5.076,0,0,1,1.948-3.919,4.4,4.4,0,0,1-.616-1.654.918.918,0,0,1,.587-1.148c.407-.175.842-.285,1.266-.424h.863a4.524,4.524,0,0,1,.831.283c.394.226.755.517,1.14.789a2.8,2.8,0,0,1,1.177-1.072Zm-1.471,11.263c.694,0,1.387,0,2.081,0a2.622,2.622,0,0,0,2.053-.934,4.73,4.73,0,0,0,.141-5.773,2.624,2.624,0,0,0-3.838-.453c-.385.307-.493.307-.879,0a2.611,2.611,0,0,0-3.721.322,4.743,4.743,0,0,0-.239,5.571,2.749,2.749,0,0,0,2.425,1.271C56.7,490.764,57.356,490.776,58.015,490.776Zm1.141,6.919h8.579c.092,0,.186,0,.278,0a.417.417,0,0,0,.39-.4.409.409,0,0,0-.349-.43,2.353,2.353,0,0,0-.354-.015q-8.376,0-16.751,0c-.16,0-.32-.007-.48-.018a2.163,2.163,0,0,1,.176-4.32q8.538,0,17.08,0c.462,0,.674-.133.681-.427s-.212-.436-.69-.436q-8.451,0-16.9,0a4.8,4.8,0,0,0-.682.049,3.033,3.033,0,0,0-2.448,3.579,3,3,0,0,0,3.023,2.418Q54.931,497.7,59.157,497.695Zm-2.255.892q-4.3,0-8.605,0a2.737,2.737,0,0,0-.3.006.415.415,0,0,0,0,.825,3.213,3.213,0,0,0,.33.008H63.146c.719,0,1.439-.007,2.158,0a2.174,2.174,0,1,1,.027,4.347q-8.516,0-17.034,0c-.084,0-.17,0-.254,0a.431.431,0,0,0-.42.4.426.426,0,0,0,.364.449,1.722,1.722,0,0,0,.3.013q8.376,0,16.755,0a7.022,7.022,0,0,0,.758-.042,3.045,3.045,0,0,0,2.546-3.579,3.09,3.09,0,0,0-3.046-2.436C62.5,498.6,59.7,498.587,56.9,498.587Zm10.191-5.212h-7.2q-4.556,0-9.11,0a1.353,1.353,0,0,0-1.125.475,1.236,1.236,0,0,0-.178,1.356,1.2,1.2,0,0,0,1.161.757q8.145,0,16.291,0a1.057,1.057,0,0,0,.157-.021v-.833h-.318q-3.172,0-6.345,0a2.391,2.391,0,0,1-.3-.01.418.418,0,0,1-.373-.411.44.44,0,0,1,.369-.446,1.91,1.91,0,0,1,.254,0h6.727ZM48.931,502.9H64.96c.126,0,.254,0,.38,0a1.3,1.3,0,0,0,1.027-.466,1.238,1.238,0,0,0,.176-1.377,1.209,1.209,0,0,0-1.172-.739q-8.119,0-16.241,0c-.065,0-.128.011-.2.018v.826h.335q3.172,0,6.344,0a2.02,2.02,0,0,1,.328.019.427.427,0,0,1,.089.81.909.909,0,0,1-.344.052q-3.223,0-6.445,0h-.306Zm8.625-20.413a1.691,1.691,0,0,0-.453-1.44,2.341,2.341,0,0,0-2.892-.31c-.044.023-.07.126-.065.189a2.675,2.675,0,0,0,.433,1.253.27.27,0,0,0,.238.074,3.008,3.008,0,0,1,1.474-.105C56.715,482.245,57.133,482.374,57.556,482.49Z" transform="translate(-46.728 -479.513)" fill="#d29d29"/>
  <path id="Trazado_34" data-name="Trazado 34" d="M51.023,484.982a3.465,3.465,0,0,1,.959-2.4.425.425,0,0,1,.755.152.531.531,0,0,1-.1.414,2.718,2.718,0,0,0-.732,1.914.445.445,0,0,1-.435.469.453.453,0,0,1-.44-.438A.77.77,0,0,1,51.023,484.982Z" transform="translate(-44.08 -477.723)" fill="#d29d29"/>
  <path id="Trazado_35" data-name="Trazado 35" d="M53.573,488.62c.787,0,1.573,0,2.359,0a.421.421,0,0,1,.4.642.565.565,0,0,1-.39.218c-1.573.014-3.146.011-4.719.006a.424.424,0,0,1-.466-.427.441.441,0,0,1,.482-.441C52.017,488.617,52.795,488.62,53.573,488.62Z" transform="translate(-44.243 -473.896)" fill="#d29d29"/>
  <path id="Trazado_36" data-name="Trazado 36" d="M55.983,493.79c-.77,0-1.539,0-2.309,0-.323,0-.514-.188-.5-.47a.392.392,0,0,1,.31-.385,1.165,1.165,0,0,1,.3-.026q2.207,0,4.415,0c.016,0,.032,0,.05,0,.364.006.561.165.556.445s-.21.438-.566.438Z" transform="translate(-42.753 -471.254)" fill="#d29d29"/>
</svg>
